<?xml version="1.0" encoding="iso-8859-1"?>
<!-- Uploaded to: SVG Repo, www.svgrepo.com, Generator: SVG Repo Mixer Tools -->
<svg xmlns="http://www.w3.org/2000/svg" xmlns:xlink="http://www.w3.org/1999/xlink" version="1.1" id="Layer_1"  viewBox="0 0 448.065 448.065" xml:space="preserve" width="512" height="512">
<g>
	<g>
		<path style="fill:#8BDC65;" d="M432.197,193.281c-10.87-2.377-21.616,4.502-23.997,15.373l7.389-33.721    c2.379-10.869-4.5-21.611-15.371-23.994c-10.871-2.381-21.613,4.5-23.994,15.369l2.902-13.248    c2.381-10.869-4.498-21.613-15.37-23.994c-10.87-2.383-21.612,4.502-23.997,15.369l-4.353,19.873    c2.382-10.871-4.499-21.615-15.37-23.996c-10.871-2.385-21.613,4.498-23.996,15.367l-19.74,90.105l-17.783-27.764    c-7.795-12.166-23.975-15.715-36.141-7.922c-12.169,7.795-15.712,23.976-7.92,36.145l37.618,58.729    c9.395,14.67,18.837,34.049,21.132,49.064c0,0,105.475,23.111,114.494,25.088c4.178-19.07,37.299-58.854,47.723-106.418    l12.144-55.426C449.948,206.412,443.068,195.666,432.197,193.281z"/>
		<path style="fill:#0071CE;" d="M319.519,228.104l-39.896,2.498l-3.324,15.184l-17.783-27.764    c-7.795-12.166-23.975-15.715-36.141-7.922c-12.169,7.795-15.712,23.976-7.92,36.145l37.618,58.729    c9.395,14.67,18.837,34.049,21.132,49.064c0,0,105.475,23.111,114.494,25.088c2.766-12.619,18.206-34.315,31.359-61.336    L319.519,228.104z"/>
		<path style="fill:#8BDC65;" d="M390.682,414.463c-1.089,4.969-6.043,8.142-11.01,7.053l-120.512-26.404    c-4.967-1.088-8.139-6.045-7.051-11.012l6.947-31.713c1.088-4.969,6.045-8.141,11.01-7.051l120.512,26.404    c4.967,1.09,8.142,6.043,7.053,11.01L390.682,414.463z"/>
		<path style="fill:#00B3E3;" d="M390.682,414.463c-1.089,4.969-6.043,8.142-11.01,7.053l-92.943-20.365    c-4.965-1.088-8.142-6.043-7.051-11.012l6.947-31.709c1.089-4.971,6.043-8.143,11.012-7.055l92.941,20.365    c4.967,1.09,8.142,6.043,7.053,11.01L390.682,414.463z"/>
		<g>
			
				<rect x="287.102" y="191.162" transform="matrix(0.9768 0.214 -0.214 0.9768 49.6383 -61.1562)" style="fill:#454F58;" width="40.299" height="15"/>
			
				<rect x="293.17" y="163.464" transform="matrix(0.9768 0.2141 -0.2141 0.9768 43.8633 -63.111)" style="fill:#454F58;" width="40.299" height="15"/>
		</g>
		<g>
			
				<rect x="330.227" y="182.627" transform="matrix(0.9768 0.214 -0.214 0.9768 48.8095 -70.5823)" style="fill:#454F58;" width="40.3" height="15"/>
			
				<rect x="336.295" y="154.927" transform="matrix(0.9768 0.2141 -0.2141 0.9768 43.0319 -72.5365)" style="fill:#454F58;" width="40.301" height="15"/>
		</g>
		<g>
			
				<rect x="365.831" y="208.414" transform="matrix(0.9768 0.214 -0.214 0.9768 55.1519 -77.603)" style="fill:#454F58;" width="40.301" height="15"/>
			
				<rect x="371.902" y="180.716" transform="matrix(0.9768 0.2141 -0.2141 0.9768 49.3811 -79.565)" style="fill:#454F58;" width="40.299" height="15"/>
		</g>
		<g>
			
				<rect x="400.559" y="238.215" transform="matrix(0.9768 0.214 -0.214 0.9768 62.3343 -84.3449)" style="fill:#454F58;" width="40.301" height="15"/>
			
				<rect x="406.626" y="210.518" transform="matrix(0.9768 0.214 -0.214 0.9768 56.5489 -86.287)" style="fill:#454F58;" width="40.3" height="15"/>
		</g>
		<path style="fill:#FFFFFF;" d="M350.072,293.197c-0.531,0-1.071-0.058-1.612-0.176l-50.864-11.145    c-4.046-0.887-6.607-4.885-5.721-8.932c0.886-4.045,4.879-6.607,8.932-5.721l50.864,11.145c4.046,0.887,6.607,4.885,5.721,8.932    C356.624,290.806,353.519,293.197,350.072,293.197z"/>
		<path style="fill:#FFFFFF;" d="M374.302,324.065c-0.531,0-1.071-0.058-1.612-0.176l-80.436-17.625    c-4.046-0.887-6.607-4.886-5.721-8.932c0.886-4.045,4.878-6.606,8.932-5.721l80.437,17.625c4.046,0.887,6.607,4.886,5.721,8.932    C380.854,321.673,377.75,324.065,374.302,324.065z"/>
	</g>
	<g>
		<path style="fill:#8BDC65;" d="M17.54,85.115c11.023-1.51,21.19,6.199,22.703,17.227l-4.694-34.201    c-1.51-11.023,6.198-21.186,17.224-22.7c11.025-1.512,21.19,6.198,22.702,17.223L73.63,49.226    c-1.512-11.024,6.196-21.189,17.222-22.701c11.024-1.515,21.187,6.199,22.705,17.222l2.765,20.157    c-1.513-11.025,6.197-21.193,17.222-22.704c11.026-1.516,21.19,6.196,22.704,17.219l12.54,91.387l19.926-26.267    c8.734-11.511,25.145-13.767,36.657-5.033c11.511,8.732,13.764,25.146,5.029,36.657l-42.151,55.563    c-10.527,13.88-21.476,32.449-24.952,47.237c0,0-106.975,14.682-116.124,15.936c-2.653-19.339-32.519-61.624-39.141-109.863    l-7.713-56.215C-1.197,96.798,6.514,86.631,17.54,85.115z"/>
		<path style="fill:#0071CE;" d="M127.104,128.756l39.572,5.649l2.111,15.4l19.926-26.267c8.734-11.511,25.145-13.767,36.657-5.033    c11.511,8.732,13.764,25.146,5.029,36.657l-42.151,55.563c-10.527,13.88-21.476,32.449-24.952,47.237    c0,0-106.975,14.682-116.124,15.936c-1.756-12.798-15.429-35.648-26.401-63.628L127.104,128.756z"/>
		<path style="fill:#8BDC65;" d="M41.4,308.891c0.693,5.039,5.379,8.596,10.417,7.901l122.225-16.772    c5.037-0.69,8.591-5.381,7.9-10.421l-4.414-32.162c-0.689-5.038-5.379-8.592-10.416-7.901L44.887,266.31    c-5.037,0.693-8.593,5.38-7.902,10.416L41.4,308.891z"/>
		<path style="fill:#00B3E3;" d="M41.4,308.891c0.693,5.039,5.379,8.596,10.417,7.901l94.265-12.938    c5.034-0.689,8.595-5.379,7.9-10.42l-4.412-32.157c-0.692-5.041-5.379-8.595-10.42-7.905L44.887,266.31    c-5.037,0.693-8.593,5.38-7.902,10.416L41.4,308.891z"/>
		<g>
			
				<rect x="134.165" y="80.229" transform="matrix(0.1359 0.9907 -0.9907 0.1359 221.8561 -53.6164)" style="fill:#454F58;" width="15.001" height="40.299"/>
			
				<rect x="130.31" y="52.136" transform="matrix(0.136 0.9907 -0.9907 0.136 190.6831 -74.0755)" style="fill:#454F58;" width="15.001" height="40.298"/>
		</g>
		<g>
			
				<rect x="91.852" y="68.304" transform="matrix(0.1359 0.9907 -0.9907 0.1359 173.4794 -22)" style="fill:#454F58;" width="15.001" height="40.3"/>
			
				<rect x="87.995" y="40.207" transform="matrix(0.136 0.9907 -0.9907 0.136 142.3033 -42.46)" style="fill:#454F58;" width="15.001" height="40.302"/>
		</g>
		<g>
			
				<rect x="54.316" y="91.188" transform="matrix(0.136 0.9907 -0.9907 0.136 163.7145 34.9553)" style="fill:#454F58;" width="15.001" height="40.302"/>
			
				<rect x="50.459" y="63.096" transform="matrix(0.1361 0.9907 -0.9907 0.1361 132.5455 14.4987)" style="fill:#454F58;" width="15.001" height="40.3"/>
		</g>
		<g>
			
				<rect x="17.336" y="118.144" transform="matrix(0.1359 0.9907 -0.9907 0.1359 158.4708 94.8901)" style="fill:#454F58;" width="15.001" height="40.301"/>
			
				<rect x="13.483" y="90.052" transform="matrix(0.1359 0.9907 -0.9907 0.1359 127.3102 74.4346)" style="fill:#454F58;" width="15.001" height="40.301"/>
		</g>
		<path style="fill:#FFFFFF;" d="M92.082,191.246c-3.69,0-6.905-2.724-7.421-6.482c-0.563-4.104,2.307-7.887,6.411-8.45    l51.587-7.079c4.106-0.553,7.887,2.308,8.45,6.411c0.563,4.104-2.307,7.887-6.411,8.45l-51.587,7.079    C92.765,191.223,92.421,191.246,92.082,191.246z"/>
		<path style="fill:#FFFFFF;" d="M65.482,220.098c-3.689,0-6.905-2.724-7.421-6.481c-0.564-4.104,2.307-7.887,6.41-8.45    l81.581-11.197c4.112-0.556,7.887,2.308,8.45,6.411c0.564,4.104-2.307,7.887-6.41,8.45l-81.581,11.197    C66.166,220.074,65.822,220.098,65.482,220.098z"/>
	</g>
</g>















</svg>